<svg width="20" height="21" viewBox="0 0 20 21" fill="none" xmlns="http://www.w3.org/2000/svg">
<path d="M10.0003 6.35046C10.5529 6.35046 11.0828 6.56996 11.4735 6.96066C11.8642 7.35136 12.0837 7.88126 12.0837 8.4338C12.0837 8.70738 12.0298 8.97829 11.9251 9.23105C11.8204 9.48382 11.6669 9.71348 11.4735 9.90694C11.28 10.1004 11.0503 10.2538 10.7976 10.3585C10.5448 10.4632 10.2739 10.5171 10.0003 10.5171C9.44779 10.5171 8.91789 10.2976 8.52719 9.90694C8.13649 9.51624 7.91699 8.98633 7.91699 8.4338C7.91699 7.88126 8.13649 7.35136 8.52719 6.96066C8.91789 6.56996 9.44779 6.35046 10.0003 6.35046ZM10.0003 2.60046C11.5474 2.60046 13.0312 3.21505 14.1251 4.30901C15.2191 5.40297 15.8337 6.8867 15.8337 8.4338C15.8337 12.8088 10.0003 19.2671 10.0003 19.2671C10.0003 19.2671 4.16699 12.8088 4.16699 8.4338C4.16699 6.8867 4.78157 5.40297 5.87554 4.30901C6.9695 3.21505 8.45323 2.60046 10.0003 2.60046ZM10.0003 4.26713C8.89526 4.26713 7.83545 4.70612 7.05405 5.48752C6.27265 6.26892 5.83366 7.32873 5.83366 8.4338C5.83366 9.26713 5.83366 10.9338 10.0003 16.5255C14.167 10.9338 14.167 9.26713 14.167 8.4338C14.167 7.32873 13.728 6.26892 12.9466 5.48752C12.1652 4.70612 11.1054 4.26713 10.0003 4.26713Z" fill="#353535"/>
</svg>
