<svg width="29" height="28" viewBox="0 0 29 28" fill="none" xmlns="http://www.w3.org/2000/svg">
<path d="M2.8335 24.5V22.1667C3.57239 22.1667 4.2335 22.0257 4.81683 21.7438C5.40016 21.4618 6.03211 21.0681 6.71266 20.5625C7.296 21.0486 7.9328 21.4326 8.62308 21.7146C9.31336 21.9965 9.97933 22.1375 10.621 22.1375C11.2627 22.1375 11.9335 22.0014 12.6335 21.7292C13.3335 21.4569 13.9654 21.0681 14.5293 20.5625C15.1516 21.1069 15.7932 21.5056 16.4543 21.7583C17.1154 22.0111 17.7766 22.1375 18.4377 22.1375C19.0793 22.1375 19.7064 22.0111 20.3189 21.7583C20.9314 21.5056 21.6071 21.1069 22.346 20.5625C23.1043 21.1458 23.7752 21.559 24.3585 21.8021C24.9418 22.0451 25.5446 22.1667 26.1668 22.1667V24.5C25.4863 24.5 24.83 24.4076 24.1981 24.2229C23.5661 24.0382 22.9488 23.7708 22.346 23.4208C21.7238 23.8097 21.0772 24.0868 20.4064 24.2521C19.7356 24.4174 19.0793 24.5 18.4377 24.5C17.796 24.5 17.1397 24.4174 16.4689 24.2521C15.7981 24.0868 15.1516 23.8097 14.5293 23.4208C13.9654 23.7903 13.3432 24.0625 12.6627 24.2375C11.9821 24.4125 11.3016 24.5 10.621 24.5C9.95989 24.5 9.29877 24.4125 8.63766 24.2375C7.97655 24.0625 7.33489 23.7903 6.71266 23.4208C6.10989 23.7708 5.4828 24.0382 4.83141 24.2229C4.18002 24.4076 3.51405 24.5 2.8335 24.5ZM2.8335 19.25V16.9167C2.8335 15.0306 3.19808 13.2708 3.92725 11.6375C4.65641 10.0042 5.65294 8.58472 6.91683 7.37917C8.18072 6.17361 9.66336 5.22569 11.3647 4.53542C13.0661 3.84514 14.8891 3.5 16.8335 3.5C17.4752 3.5 18.112 3.53403 18.7439 3.60208C19.3759 3.67014 19.9446 3.7625 20.4502 3.87917C20.0418 4.50139 19.7259 5.15764 19.5022 5.84792C19.2786 6.53819 19.1668 7.18472 19.1668 7.7875C19.1668 8.85694 19.546 9.77083 20.3043 10.5292C21.0627 11.2875 21.9766 11.6667 23.046 11.6667H26.1668V14H23.046C21.3154 14 19.8474 13.3972 18.6418 12.1917C17.4363 10.9861 16.8335 9.51806 16.8335 7.7875C16.8335 7.51528 16.8529 7.22847 16.8918 6.92708C16.9307 6.62569 16.9891 6.32917 17.0668 6.0375C15.6279 6.3875 14.4516 7.13125 13.5377 8.26875C12.6238 9.40625 12.1668 10.7333 12.1668 12.25C12.1668 12.95 12.2786 13.616 12.5022 14.2479C12.7259 14.8799 13.0418 15.4778 13.4502 16.0417C13.6057 15.9444 13.771 15.8326 13.946 15.7063C14.121 15.5799 14.3057 15.4486 14.5002 15.3125C15.0641 15.8181 15.7154 16.2069 16.4543 16.4792C17.1932 16.7514 17.8543 16.8875 18.4377 16.8875C19.021 16.8875 19.6724 16.7465 20.3918 16.4646C21.1113 16.1826 21.7627 15.7986 22.346 15.3125C22.9682 15.7792 23.5856 16.1632 24.1981 16.4646C24.8106 16.766 25.4668 16.9167 26.1668 16.9167V19.25C25.4863 19.25 24.83 19.1576 24.1981 18.9729C23.5661 18.7882 22.9488 18.5208 22.346 18.1708C21.7238 18.5597 21.0918 18.8368 20.4502 19.0021C19.8085 19.1674 19.1377 19.25 18.4377 19.25C17.7377 19.25 17.0377 19.1528 16.3377 18.9583C15.6377 18.7639 15.0349 18.5014 14.5293 18.1708C13.9266 18.5403 13.2946 18.8076 12.6335 18.9729C11.9724 19.1382 11.3016 19.2306 10.621 19.25C9.94044 19.2694 9.26961 19.1819 8.6085 18.9875C7.94739 18.7931 7.31544 18.5208 6.71266 18.1708C6.10989 18.5208 5.4828 18.7882 4.83141 18.9729C4.18002 19.1576 3.51405 19.25 2.8335 19.25ZM10.5627 16.8875H10.8543C10.9516 16.8875 11.0488 16.8778 11.146 16.8583C10.7182 16.1778 10.3925 15.4486 10.1689 14.6708C9.9453 13.8931 9.8335 13.0861 9.8335 12.25C9.8335 10.675 10.1932 9.25069 10.9127 7.97708C11.6321 6.70347 12.6335 5.65833 13.9168 4.84167V6.125C12.7113 6.43611 11.5981 6.90764 10.5772 7.53958C9.55641 8.17153 8.66197 8.93472 7.89391 9.82917C7.12586 10.7236 6.5085 11.7201 6.04183 12.8188C5.57516 13.9174 5.29322 15.0889 5.196 16.3333C5.48766 16.1583 5.74044 16.0028 5.95433 15.8667C6.16822 15.7306 6.421 15.5458 6.71266 15.3125C7.43211 15.8375 8.0835 16.2313 8.66683 16.4938C9.25016 16.7563 9.88211 16.8875 10.5627 16.8875Z" fill="#5F6368"/>
</svg>
