<svg width="16" height="16" viewBox="0 0 16 16" fill="none" xmlns="http://www.w3.org/2000/svg">
<path d="M8.06665 12.3667L7.99998 12.4333L7.92665 12.3667C4.75998 9.49333 2.66665 7.59333 2.66665 5.66667C2.66665 4.33333 3.66665 3.33333 4.99998 3.33333C6.02665 3.33333 7.02665 4 7.37998 4.90667H8.61998C8.97331 4 9.97331 3.33333 11 3.33333C12.3333 3.33333 13.3333 4.33333 13.3333 5.66667C13.3333 7.59333 11.24 9.49333 8.06665 12.3667ZM11 2C9.83998 2 8.72665 2.54 7.99998 3.38667C7.27331 2.54 6.15998 2 4.99998 2C2.94665 2 1.33331 3.60667 1.33331 5.66667C1.33331 8.18 3.59998 10.24 7.03331 13.3533L7.99998 14.2333L8.96665 13.3533C12.4 10.24 14.6666 8.18 14.6666 5.66667C14.6666 3.60667 13.0533 2 11 2Z" fill="#353535"/>
</svg>
