<svg width="28" height="28" viewBox="0 0 28 28" fill="none" xmlns="http://www.w3.org/2000/svg">
<path d="M13.0489 2.92681C13.3483 2.00549 14.6517 2.0055 14.9511 2.92681L16.9187 8.98253C17.0526 9.39456 17.4365 9.67352 17.8697 9.67352H24.2371C25.2058 9.67352 25.6086 10.9131 24.8249 11.4825L19.6736 15.2252C19.3231 15.4798 19.1764 15.9312 19.3103 16.3432L21.2779 22.3989C21.5773 23.3203 20.5228 24.0864 19.7391 23.517L14.5878 19.7743C14.2373 19.5197 13.7627 19.5197 13.4122 19.7743L8.2609 23.517C7.47719 24.0864 6.42271 23.3203 6.72206 22.3989L8.68969 16.3432C8.82356 15.9312 8.6769 15.4798 8.32642 15.2252L3.17511 11.4825C2.39139 10.9131 2.79417 9.67352 3.76289 9.67352H10.1303C10.5635 9.67352 10.9474 9.39456 11.0813 8.98253L13.0489 2.92681Z" fill="#F7871B"/>
</svg>
