<svg width="42" height="40" viewBox="0 0 42 40" fill="none" xmlns="http://www.w3.org/2000/svg">
<g clip-path="url(#clip0_57_3822)">
<path d="M11.2104 7.10913H30.7227C31.3895 7.10913 31.9321 7.63483 31.9321 8.28101C31.9321 8.92718 31.3895 9.45288 30.7227 9.45288H23.3854C21.3847 9.45288 19.7571 11.03 19.7571 12.9685V14.1404H22.1759V12.9685C22.1759 12.3223 22.7185 11.7966 23.3854 11.7966H30.7227C32.7233 11.7966 34.351 10.2195 34.351 8.28101C34.351 6.34249 32.7233 4.76538 30.7227 4.76538H11.2104C10.5435 4.76538 10.0009 4.23968 10.0009 3.59351V2.42163H7.58203V3.59351C7.58203 5.53202 9.2097 7.10913 11.2104 7.10913Z" fill="#092140"/>
<path d="M32.9555 28.2029H36.7697C39.4372 28.2029 41.6074 26.1001 41.6074 23.5154C41.6074 20.9307 39.4372 18.8279 36.7697 18.8279H34.3508V16.4841H7.58184V22.4216C7.58184 25.4267 8.63147 28.2682 10.5288 30.5466H0.325195V32.8904H5.62496L8.04384 37.5779H33.8889L36.3077 32.8904H41.6074V30.5466H31.4038C32.01 29.8187 32.529 29.0328 32.9555 28.2029ZM36.7697 21.1716C38.1034 21.1716 39.1885 22.223 39.1885 23.5154C39.1885 24.8077 38.1034 25.8591 36.7697 25.8591H33.877C34.188 24.7544 34.3508 23.6008 34.3508 22.4216V21.1716H36.7697ZM10.0007 22.4216V18.8279H31.9319V22.4216C31.9319 25.5812 30.515 28.5199 28.0312 30.5466H13.9014C11.4176 28.5199 10.0007 25.5812 10.0007 22.4216ZM32.3938 35.2341H9.53879L8.32935 32.8904H33.6033L32.3938 35.2341Z" fill="#092140"/>
</g>
<defs>
<clipPath id="clip0_57_3822">
<rect x="0.325195" y="-0.000244141" width="41.2822" height="40" rx="12" fill="white"/>
</clipPath>
</defs>
</svg>
