<svg width="42" height="40" viewBox="0 0 42 40" fill="none" xmlns="http://www.w3.org/2000/svg">
<g clip-path="url(#clip0_1_1591)">
<path d="M39.1052 4.88452H13.0052C11.5948 4.88452 10.4473 5.99632 10.4473 7.36304V9.56867L7.97363 7.17179L3.7829 11.2323L5.68512 13.0755L0.380737 21.1485L5.76712 29.3063H3.73324C2.15459 29.3063 0.87032 30.5507 0.87032 32.0803V35.1147H15.1422V32.0803C15.1422 30.5507 13.8579 29.3063 12.2793 29.3063H8.6772L3.28873 21.1454L6.84264 15.7364C6.72314 17.4185 7.32375 19.1401 8.64793 20.4231L9.66516 21.4088L10.4473 20.651V25.933C10.4473 27.2996 11.5947 28.4114 13.0052 28.4114H20.321L19.8888 32.7397H17.8657V35.1148H19.6515H32.4587H34.2445V32.7397H32.2215L31.7893 28.4114H39.105C40.5154 28.4114 41.6629 27.2996 41.6629 25.933V7.36312C41.6631 5.9964 40.5156 4.88452 39.1052 4.88452ZM12.2792 31.6814C12.5061 31.6814 12.6908 31.8604 12.6908 32.0803V32.7396H3.32162V32.0803C3.32162 31.8604 3.50626 31.6814 3.73324 31.6814H12.2792ZM8.9274 11.6327C8.90506 11.6518 8.88257 11.6706 8.86047 11.6901C8.78968 11.7526 8.71994 11.8163 8.65189 11.8823L8.64793 11.8859L8.64423 11.8897C8.57633 11.9556 8.51054 12.0231 8.44612 12.0916C8.42572 12.1134 8.40596 12.1355 8.38597 12.1574C8.35751 12.1885 8.3284 12.2191 8.30066 12.2509L7.24966 11.2325L7.97363 10.5309L9.02464 11.5493C8.99166 11.5763 8.95973 11.6048 8.9274 11.6327ZM9.7632 17.9552C9.15461 16.9117 9.1168 15.6384 9.64847 14.5659C9.65218 14.5584 9.65589 14.551 9.65959 14.5437C9.67822 14.5067 9.69757 14.47 9.71757 14.4334C9.72289 14.4237 9.72845 14.4141 9.73394 14.4044C9.75321 14.3699 9.77296 14.3356 9.7936 14.3018C9.80045 14.2905 9.80755 14.2793 9.81456 14.268C9.83448 14.2358 9.8548 14.2037 9.87584 14.172C9.88439 14.1592 9.89334 14.1466 9.90205 14.1338C9.92237 14.104 9.94293 14.0742 9.96429 14.0449C9.97518 14.0301 9.98663 14.0154 9.99767 14.0007C10.0178 13.9738 10.038 13.947 10.059 13.9206C10.0733 13.9025 10.0884 13.8849 10.1031 13.8671C10.1219 13.8444 10.1404 13.8215 10.1598 13.7991C10.1803 13.7755 10.2017 13.7525 10.223 13.7293C10.2377 13.7131 10.2521 13.6966 10.2671 13.6807C10.3042 13.6415 10.3422 13.6031 10.3812 13.5652C10.4247 13.5231 10.4691 13.4824 10.5143 13.4427C10.5273 13.4313 10.5406 13.4204 10.5538 13.4091C10.5867 13.3809 10.6199 13.3529 10.6536 13.3261C10.6681 13.3145 10.683 13.3033 10.6977 13.2919C10.7314 13.2659 10.7653 13.2402 10.7997 13.2154C10.8136 13.2052 10.8278 13.1954 10.842 13.1855C10.8787 13.1598 10.9158 13.1347 10.9532 13.1104C10.9652 13.1026 10.9772 13.0948 10.9894 13.0871C11.0313 13.0606 11.0738 13.035 11.1165 13.0102C11.1245 13.0056 11.1325 13.0008 11.1404 12.9963C11.4562 12.8168 11.7931 12.6856 12.1401 12.6023C12.1456 12.601 12.1512 12.5995 12.1568 12.5981C12.2113 12.5853 12.2661 12.5738 12.3211 12.5634C12.3257 12.5625 12.3302 12.5615 12.3349 12.5606C12.391 12.5501 12.4473 12.541 12.5038 12.533C12.5071 12.5325 12.5104 12.532 12.5137 12.5315C12.5708 12.5236 12.6282 12.517 12.6855 12.5116C12.6884 12.5113 12.6912 12.511 12.694 12.5107C12.7512 12.5055 12.8084 12.5015 12.8658 12.4988C12.8693 12.4987 12.8727 12.4984 12.8762 12.4983C12.932 12.4958 12.9879 12.4945 13.0438 12.4944C13.0489 12.4944 13.0541 12.4943 13.0593 12.4943C13.2172 12.4945 13.375 12.5042 13.5318 12.5234C13.5353 12.5238 13.5387 12.5244 13.5422 12.5248C13.6103 12.5333 13.6782 12.5441 13.7458 12.5563C13.7657 12.5598 13.7855 12.5637 13.8053 12.5676C13.8577 12.5778 13.9097 12.5894 13.9616 12.6017C13.9846 12.6073 14.0077 12.6123 14.0305 12.6183C14.0921 12.6342 14.1534 12.6517 14.2144 12.6706C14.2462 12.6806 14.2777 12.6916 14.3094 12.7024C14.3495 12.716 14.3894 12.7298 14.4291 12.7448C14.4636 12.7578 14.4978 12.7717 14.532 12.7857C14.5637 12.7988 14.5953 12.8123 14.6268 12.8262C14.6619 12.8417 14.6969 12.8572 14.7314 12.8738C14.7645 12.8897 14.7972 12.9067 14.8298 12.9235C14.8573 12.9377 14.885 12.9512 14.9121 12.9659L12.3379 15.4602L9.7632 17.9552ZM22.3516 32.7396L22.7838 28.4114H29.3267L29.7589 32.7396H22.3516ZM39.2118 25.9329C39.2118 25.9899 39.1639 26.0363 39.1051 26.0363H31.5522H20.5582H13.0052C12.9464 26.0363 12.8986 25.99 12.8986 25.9329V23.7213H39.2119L39.2118 25.9329ZM39.2118 21.3461H12.8986V18.2758L18.4762 12.8714L17.4589 11.8858C16.8399 11.286 16.1217 10.8399 15.3552 10.5458C15.3486 10.5433 15.3419 10.541 15.3352 10.5385C15.2482 10.5054 15.1606 10.474 15.0723 10.4448C15.0465 10.4363 15.0203 10.4288 14.9944 10.4205C14.9258 10.3988 14.8572 10.3776 14.788 10.3582C14.7439 10.3459 14.6993 10.3349 14.655 10.3235C14.6042 10.3105 14.5534 10.2972 14.5024 10.2855C14.442 10.2715 14.3813 10.2593 14.3205 10.247C14.2855 10.24 14.2507 10.2326 14.2157 10.2262C14.1416 10.2126 14.0672 10.2009 13.9925 10.1898C13.9709 10.1866 13.9494 10.1831 13.9277 10.1802C13.8428 10.1684 13.7576 10.1588 13.6721 10.1505C13.6608 10.1495 13.6496 10.1483 13.6384 10.1472C13.5454 10.1387 13.452 10.1323 13.3585 10.1278C13.3549 10.1277 13.3513 10.1274 13.3477 10.1273C13.1982 10.1204 13.0485 10.1167 12.8982 10.1203V7.36312C12.8982 7.30609 12.9461 7.25976 13.0049 7.25976H39.1049C39.1637 7.25976 39.2116 7.30617 39.2116 7.36312L39.2118 21.3461Z" fill="#092140"/>
</g>
<defs>
<clipPath id="clip0_1_1591">
<rect x="0.380737" y="-0.000244141" width="41.2823" height="40" rx="12" fill="white"/>
</clipPath>
</defs>
</svg>
