<svg width="41" height="40" viewBox="0 0 41 40" fill="none" xmlns="http://www.w3.org/2000/svg">
<path d="M7.6874 20.208C6.49156 20.208 5.4808 19.8052 4.65511 18.9997C3.82941 18.1941 3.41656 17.208 3.41656 16.0413C3.41656 14.8747 3.82941 13.8886 4.65511 13.083C5.4808 12.2775 6.49156 11.8747 7.6874 11.8747C8.88323 11.8747 9.894 12.2775 10.7197 13.083C11.5454 13.8886 11.9582 14.8747 11.9582 16.0413C11.9582 17.208 11.5454 18.1941 10.7197 18.9997C9.894 19.8052 8.88323 20.208 7.6874 20.208ZM15.3749 13.5413C14.1791 13.5413 13.1683 13.1386 12.3426 12.333C11.5169 11.5275 11.1041 10.5413 11.1041 9.37467C11.1041 8.20801 11.5169 7.2219 12.3426 6.41634C13.1683 5.61079 14.1791 5.20801 15.3749 5.20801C16.5707 5.20801 17.5815 5.61079 18.4072 6.41634C19.2329 7.2219 19.6457 8.20801 19.6457 9.37467C19.6457 10.5413 19.2329 11.5275 18.4072 12.333C17.5815 13.1386 16.5707 13.5413 15.3749 13.5413ZM25.6249 13.5413C24.4291 13.5413 23.4183 13.1386 22.5926 12.333C21.7669 11.5275 21.3541 10.5413 21.3541 9.37467C21.3541 8.20801 21.7669 7.2219 22.5926 6.41634C23.4183 5.61079 24.4291 5.20801 25.6249 5.20801C26.8207 5.20801 27.8315 5.61079 28.6572 6.41634C29.4829 7.2219 29.8957 8.20801 29.8957 9.37467C29.8957 10.5413 29.4829 11.5275 28.6572 12.333C27.8315 13.1386 26.8207 13.5413 25.6249 13.5413ZM33.3124 20.208C32.1166 20.208 31.1058 19.8052 30.2801 18.9997C29.4544 18.1941 29.0416 17.208 29.0416 16.0413C29.0416 14.8747 29.4544 13.8886 30.2801 13.083C31.1058 12.2775 32.1166 11.8747 33.3124 11.8747C34.5082 11.8747 35.519 12.2775 36.3447 13.083C37.1704 13.8886 37.5832 14.8747 37.5832 16.0413C37.5832 17.208 37.1704 18.1941 36.3447 18.9997C35.519 19.8052 34.5082 20.208 33.3124 20.208ZM11.3603 36.8747C10.0791 36.8747 9.00424 36.3955 8.13584 35.4372C7.26743 34.4788 6.83323 33.3469 6.83323 32.0413C6.83323 30.5969 7.33861 29.333 8.34938 28.2497C9.36014 27.1663 10.3638 26.0969 11.3603 25.0413C12.186 24.1802 12.8978 23.2427 13.4957 22.2288C14.0936 21.215 14.8055 20.2636 15.6311 19.3747C16.2575 18.6525 16.9836 18.0552 17.8093 17.583C18.635 17.1108 19.5318 16.8747 20.4999 16.8747C21.468 16.8747 22.3648 17.0969 23.1905 17.5413C24.0162 17.9858 24.7423 18.5691 25.3686 19.2913C26.1659 20.1802 26.8706 21.1386 27.4827 22.1663C28.0949 23.1941 28.8138 24.1525 29.6395 25.0413C30.636 26.0969 31.6397 27.1663 32.6504 28.2497C33.6612 29.333 34.1666 30.5969 34.1666 32.0413C34.1666 33.3469 33.7324 34.4788 32.864 35.4372C31.9956 36.3955 30.9207 36.8747 29.6395 36.8747C28.102 36.8747 26.5787 36.7497 25.0697 36.4997C23.5607 36.2497 22.0374 36.1247 20.4999 36.1247C18.9624 36.1247 17.4391 36.2497 15.9301 36.4997C14.4211 36.7497 12.8978 36.8747 11.3603 36.8747Z" fill="#092140"/>
</svg>
