<svg width="41" height="41" viewBox="0 0 41 41" fill="none" xmlns="http://www.w3.org/2000/svg">
<path d="M20.6709 37.5832C18.2792 37.5832 16.0371 37.1276 13.9444 36.2165C11.8516 35.3054 10.0294 34.074 8.47769 32.5222C6.92595 30.9705 5.69453 29.1483 4.78341 27.0556C3.8723 24.9629 3.41675 22.7207 3.41675 20.329C3.41675 16.1721 4.74071 12.5063 7.38862 9.33161C10.0365 6.15696 13.4105 4.18525 17.5105 3.4165C16.998 6.23525 17.1546 8.98994 17.9803 11.6806C18.806 14.3712 20.2296 16.7273 22.2511 18.7488C24.2727 20.7703 26.6287 22.1939 29.3194 23.0196C32.01 23.8453 34.7647 24.0019 37.5834 23.4894C36.8431 27.5894 34.8786 30.9634 31.6897 33.6113C28.5008 36.2592 24.8279 37.5832 20.6709 37.5832ZM20.6709 34.1665C23.1765 34.1665 25.497 33.5401 27.6324 32.2873C29.7678 31.0346 31.4477 29.312 32.672 27.1196C30.2233 26.8919 27.9029 26.2726 25.7105 25.2618C23.5181 24.2511 21.5536 22.8773 19.8167 21.1405C18.0799 19.4037 16.699 17.4391 15.674 15.2467C14.649 13.0544 14.0369 10.7339 13.8376 8.28525C11.6452 9.50956 9.92977 11.1965 8.69123 13.3462C7.45269 15.4958 6.83341 17.8234 6.83341 20.329C6.83341 24.1728 8.17873 27.4399 10.8694 30.1306C13.56 32.8212 16.8272 34.1665 20.6709 34.1665Z" fill="#092140"/>
</svg>
