<svg width="28" height="28" viewBox="0 0 28 28" fill="none" xmlns="http://www.w3.org/2000/svg">
<path d="M6.3 22.8666C5.425 21.9916 4.73958 20.9805 4.24375 19.8333C3.74792 18.6861 3.5 17.5 3.5 16.275C3.5 15.05 3.73333 13.8396 4.2 12.6437C4.66667 11.4479 5.425 10.325 6.475 9.27498C7.15556 8.59442 7.99653 8.01109 8.99792 7.52498C9.99931 7.03887 11.1854 6.65484 12.5563 6.37289C13.9271 6.09095 15.4924 5.92081 17.2521 5.86248C19.0118 5.80414 20.9806 5.8722 23.1583 6.06664C23.3139 8.12776 23.3625 10.0236 23.3042 11.7541C23.2458 13.4847 23.0854 15.0451 22.8229 16.4354C22.5604 17.8257 22.191 19.0409 21.7146 20.0812C21.2382 21.1215 20.65 21.9916 19.95 22.6916C18.9194 23.7222 17.8257 24.4757 16.6688 24.9521C15.5118 25.4284 14.3306 25.6666 13.125 25.6666C11.8611 25.6666 10.6264 25.4187 9.42083 24.9229C8.21528 24.4271 7.175 23.7416 6.3 22.8666ZM9.56667 22.4C10.1306 22.7305 10.709 22.9687 11.3021 23.1146C11.8951 23.2604 12.5028 23.3333 13.125 23.3333C14.0194 23.3333 14.9042 23.1534 15.7792 22.7937C16.6542 22.434 17.4903 21.8555 18.2875 21.0583C18.6375 20.7083 18.9924 20.2173 19.3521 19.5854C19.7118 18.9534 20.0229 18.1271 20.2854 17.1062C20.5479 16.0854 20.7472 14.8507 20.8833 13.4021C21.0194 11.9534 21.0389 10.2278 20.9417 8.22498C19.9889 8.18609 18.9146 8.17151 17.7188 8.18123C16.5229 8.19095 15.3319 8.28331 14.1458 8.45831C12.9597 8.63331 11.8319 8.91526 10.7625 9.30414C9.69306 9.69303 8.81806 10.2278 8.1375 10.9083C7.2625 11.7833 6.65972 12.6486 6.32917 13.5041C5.99861 14.3597 5.83333 15.1861 5.83333 15.9833C5.83333 17.1305 6.05208 18.1368 6.48958 19.0021C6.92708 19.8673 7.31111 20.475 7.64167 20.825C8.45833 19.2694 9.5375 17.7771 10.8792 16.3479C12.2208 14.9187 13.7861 13.7472 15.575 12.8333C14.175 14.0583 12.9549 15.4437 11.9146 16.9896C10.8743 18.5354 10.0917 20.3389 9.56667 22.4Z" fill="#5F6368"/>
</svg>
