<svg width="41" height="40" viewBox="0 0 41 40" fill="none" xmlns="http://www.w3.org/2000/svg">
<path d="M7.68734 20.208C6.4915 20.208 5.48074 19.8052 4.65505 18.9997C3.82935 18.1941 3.4165 17.208 3.4165 16.0413C3.4165 14.8747 3.82935 13.8886 4.65505 13.083C5.48074 12.2775 6.4915 11.8747 7.68734 11.8747C8.88317 11.8747 9.89393 12.2775 10.7196 13.083C11.5453 13.8886 11.9582 14.8747 11.9582 16.0413C11.9582 17.208 11.5453 18.1941 10.7196 18.9997C9.89393 19.8052 8.88317 20.208 7.68734 20.208ZM15.3748 13.5413C14.179 13.5413 13.1682 13.1386 12.3425 12.333C11.5169 11.5275 11.104 10.5413 11.104 9.37467C11.104 8.20801 11.5169 7.2219 12.3425 6.41634C13.1682 5.61079 14.179 5.20801 15.3748 5.20801C16.5707 5.20801 17.5814 5.61079 18.4071 6.41634C19.2328 7.2219 19.6457 8.20801 19.6457 9.37467C19.6457 10.5413 19.2328 11.5275 18.4071 12.333C17.5814 13.1386 16.5707 13.5413 15.3748 13.5413ZM25.6248 13.5413C24.429 13.5413 23.4182 13.1386 22.5925 12.333C21.7669 11.5275 21.354 10.5413 21.354 9.37467C21.354 8.20801 21.7669 7.2219 22.5925 6.41634C23.4182 5.61079 24.429 5.20801 25.6248 5.20801C26.8207 5.20801 27.8314 5.61079 28.6571 6.41634C29.4828 7.2219 29.8957 8.20801 29.8957 9.37467C29.8957 10.5413 29.4828 11.5275 28.6571 12.333C27.8314 13.1386 26.8207 13.5413 25.6248 13.5413ZM33.3123 20.208C32.1165 20.208 31.1057 19.8052 30.28 18.9997C29.4544 18.1941 29.0415 17.208 29.0415 16.0413C29.0415 14.8747 29.4544 13.8886 30.28 13.083C31.1057 12.2775 32.1165 11.8747 33.3123 11.8747C34.5082 11.8747 35.5189 12.2775 36.3446 13.083C37.1703 13.8886 37.5832 14.8747 37.5832 16.0413C37.5832 17.208 37.1703 18.1941 36.3446 18.9997C35.5189 19.8052 34.5082 20.208 33.3123 20.208ZM11.3603 36.8747C10.079 36.8747 9.00418 36.3955 8.13577 35.4372C7.26737 34.4788 6.83317 33.3469 6.83317 32.0413C6.83317 30.5969 7.33855 29.333 8.34932 28.2497C9.36008 27.1663 10.3637 26.0969 11.3603 25.0413C12.1859 24.1802 12.8978 23.2427 13.4957 22.2288C14.0936 21.215 14.8054 20.2636 15.6311 19.3747C16.2575 18.6525 16.9835 18.0552 17.8092 17.583C18.6349 17.1108 19.5318 16.8747 20.4998 16.8747C21.4679 16.8747 22.3648 17.0969 23.1905 17.5413C24.0162 17.9858 24.7422 18.5691 25.3686 19.2913C26.1658 20.1802 26.8705 21.1386 27.4827 22.1663C28.0948 23.1941 28.8137 24.1525 29.6394 25.0413C30.6359 26.0969 31.6396 27.1663 32.6504 28.2497C33.6611 29.333 34.1665 30.5969 34.1665 32.0413C34.1665 33.3469 33.7323 34.4788 32.8639 35.4372C31.9955 36.3955 30.9207 36.8747 29.6394 36.8747C28.1019 36.8747 26.5787 36.7497 25.0696 36.4997C23.5606 36.2497 22.0373 36.1247 20.4998 36.1247C18.9623 36.1247 17.4391 36.2497 15.93 36.4997C14.421 36.7497 12.8978 36.8747 11.3603 36.8747Z" fill="#092140"/>
</svg>
