<svg width="41" height="41" viewBox="0 0 41 41" fill="none" xmlns="http://www.w3.org/2000/svg">
<path d="M20.6707 37.5832C18.279 37.5832 16.0368 37.1276 13.9441 36.2165C11.8514 35.3054 10.0292 34.074 8.47744 32.5222C6.92571 30.9705 5.69428 29.1483 4.78317 27.0556C3.87206 24.9629 3.4165 22.7207 3.4165 20.329C3.4165 16.1721 4.74046 12.5063 7.38838 9.33161C10.0363 6.15696 13.4103 4.18525 17.5103 3.4165C16.9978 6.23525 17.1544 8.98994 17.98 11.6806C18.8057 14.3712 20.2294 16.7273 22.2509 18.7488C24.2724 20.7703 26.6285 22.1939 29.3191 23.0196C32.0097 23.8453 34.7644 24.0019 37.5832 23.4894C36.8429 27.5894 34.8783 30.9634 31.6894 33.6113C28.5005 36.2592 24.8276 37.5832 20.6707 37.5832ZM20.6707 34.1665C23.1762 34.1665 25.4967 33.5401 27.6321 32.2873C29.7675 31.0346 31.4474 29.312 32.6717 27.1196C30.2231 26.8919 27.9026 26.2726 25.7103 25.2618C23.5179 24.2511 21.5533 22.8773 19.8165 21.1405C18.0797 19.4037 16.6988 17.4391 15.6738 15.2467C14.6488 13.0544 14.0366 10.7339 13.8373 8.28525C11.645 9.50956 9.92952 11.1965 8.69098 13.3462C7.45244 15.4958 6.83317 17.8234 6.83317 20.329C6.83317 24.1728 8.17848 27.4399 10.8691 30.1306C13.5597 32.8212 16.8269 34.1665 20.6707 34.1665Z" fill="#092140"/>
</svg>
