<svg width="30" height="27" viewBox="0 0 30 27" fill="none" xmlns="http://www.w3.org/2000/svg">
<path d="M14.957 22.9338C15.7401 22.9338 16.375 22.299 16.375 21.5159C16.375 20.7327 15.7401 20.0979 14.957 20.0979C14.1739 20.0979 13.5391 20.7327 13.5391 21.5159C13.5391 22.299 14.1739 22.9338 14.957 22.9338Z" fill="#092140"/>
<path d="M25.7693 9.54322C22.945 6.51294 19.1204 4.84404 14.9998 4.84399C10.8796 4.84404 7.05506 6.51294 4.23069 9.54322C3.90713 9.89041 3.92625 10.4342 4.27344 10.7578C4.62067 11.0814 5.16444 11.0623 5.48804 10.7151C7.98366 8.03743 11.3617 6.56278 15.0001 6.56274C18.6383 6.56278 22.0163 8.03743 24.5119 10.7151C24.6812 10.8966 24.9107 10.9885 25.1408 10.9885C25.3506 10.9885 25.5609 10.9121 25.7265 10.7578C26.0737 10.4342 26.0929 9.89041 25.7693 9.54322Z" fill="#092140"/>
<path d="M22.6139 13.0921C20.5261 10.9886 17.8222 9.83024 15 9.83032C12.1772 9.83037 9.47314 10.9888 7.38607 13.0922C7.05177 13.4291 7.05388 13.9732 7.39079 14.3075C7.72771 14.6418 8.27182 14.6397 8.60612 14.3028C10.3681 12.5271 12.6388 11.5491 15 11.5491C17.3606 11.549 19.6313 12.527 21.3939 14.3029C21.5619 14.4721 21.7828 14.5569 22.0039 14.5569C22.2227 14.5569 22.4416 14.4738 22.6093 14.3074C22.9461 13.9731 22.9482 13.429 22.6139 13.0921Z" fill="#092140"/>
<path d="M19.1741 16.6515C18.0561 15.5438 16.4535 14.8557 14.9916 14.8557C14.9914 14.8557 14.9911 14.8557 14.9909 14.8557H14.929C14.9288 14.8557 14.9286 14.8557 14.9284 14.8557C13.4665 14.8557 11.8637 15.5438 10.7457 16.6515C10.4086 16.9855 10.4061 17.5296 10.7401 17.8668C10.9081 18.0364 11.1293 18.1213 11.3506 18.1213C11.5692 18.1213 11.7878 18.0384 11.9554 17.8725C12.7513 17.0839 13.9182 16.5745 14.9285 16.5745C14.9286 16.5745 14.9288 16.5745 14.9289 16.5745H14.9911C14.9912 16.5745 14.9913 16.5745 14.9915 16.5745C16.0016 16.5745 17.1686 17.0839 17.9644 17.8725C18.3016 18.2065 18.8458 18.204 19.1798 17.8668C19.5138 17.5297 19.5113 16.9855 19.1741 16.6515Z" fill="#092140"/>
</svg>
