<svg width="28" height="28" viewBox="0 0 28 28" fill="none" xmlns="http://www.w3.org/2000/svg">
<path d="M10.0333 26.25L7.81663 22.5167L3.61663 21.5833L4.02496 17.2667L1.16663 14L4.02496 10.7333L3.61663 6.41667L7.81663 5.48333L10.0333 1.75L14 3.44167L17.9666 1.75L20.1833 5.48333L24.3833 6.41667L23.975 10.7333L26.8333 14L23.975 17.2667L24.3833 21.5833L20.1833 22.5167L17.9666 26.25L14 24.5583L10.0333 26.25ZM11.025 23.275L14 21.9917L17.0333 23.275L18.6666 20.475L21.875 19.7167L21.5833 16.45L23.7416 14L21.5833 11.4917L21.875 8.225L18.6666 7.525L16.975 4.725L14 6.00833L10.9666 4.725L9.33329 7.525L6.12496 8.225L6.41663 11.4917L4.25829 14L6.41663 16.45L6.12496 19.775L9.33329 20.475L11.025 23.275ZM12.775 18.1417L19.3666 11.55L17.7333 9.85833L12.775 14.8167L10.2666 12.3667L8.63329 14L12.775 18.1417Z" fill="#5F6368"/>
</svg>
