<svg width="42" height="40" viewBox="0 0 42 40" fill="none" xmlns="http://www.w3.org/2000/svg">
<g clip-path="url(#clip0_57_3807)">
<path d="M39.1048 4.88452H13.0049C11.5944 4.88452 10.4469 5.99632 10.4469 7.36304V9.56867L7.97326 7.17179L3.78254 11.2323L5.68475 13.0755L0.380371 21.1485L5.76675 29.3063H3.73287C2.15422 29.3063 0.869954 30.5507 0.869954 32.0803V35.1147H15.1418V32.0803C15.1418 30.5507 13.8575 29.3063 12.2789 29.3063H8.67684L3.28836 21.1454L6.84227 15.7364C6.72278 17.4185 7.32339 19.1401 8.64757 20.4231L9.66479 21.4088L10.4469 20.651V25.933C10.4469 27.2996 11.5943 28.4114 13.0049 28.4114H20.3206L19.8884 32.7397H17.8653V35.1148H19.6512H32.4583H34.2442V32.7397H32.2211L31.7889 28.4114H39.1046C40.5151 28.4114 41.6626 27.2996 41.6626 25.933V7.36312C41.6627 5.9964 40.5152 4.88452 39.1048 4.88452ZM12.2788 31.6814C12.5058 31.6814 12.6904 31.8604 12.6904 32.0803V32.7396H3.32126V32.0803C3.32126 31.8604 3.5059 31.6814 3.73287 31.6814H12.2788ZM8.92703 11.6327C8.9047 11.6518 8.8822 11.6706 8.86011 11.6901C8.78932 11.7526 8.71957 11.8163 8.65152 11.8823C8.65023 11.8835 8.64894 11.8846 8.64757 11.8859C8.6462 11.8871 8.64515 11.8884 8.64386 11.8897C8.57597 11.9556 8.51018 12.0231 8.44575 12.0916C8.42535 12.1134 8.4056 12.1355 8.3856 12.1574C8.35714 12.1885 8.32803 12.2191 8.3003 12.2509L7.24929 11.2325L7.97326 10.5309L9.02427 11.5493C8.99129 11.5763 8.95936 11.6048 8.92703 11.6327ZM9.76284 17.9552C9.15424 16.9117 9.11643 15.6384 9.6481 14.5659C9.65181 14.5584 9.65552 14.551 9.65923 14.5437C9.67785 14.5067 9.69721 14.47 9.7172 14.4334C9.72252 14.4237 9.72809 14.4141 9.73357 14.4044C9.75284 14.3699 9.77259 14.3356 9.79323 14.3018C9.80009 14.2905 9.80718 14.2793 9.8142 14.268C9.83411 14.2358 9.85443 14.2037 9.87548 14.172C9.88402 14.1592 9.89297 14.1466 9.90168 14.1338C9.922 14.104 9.94256 14.0742 9.96393 14.0449C9.97481 14.0301 9.98626 14.0154 9.99731 14.0007C10.0175 13.9738 10.0376 13.947 10.0586 13.9206C10.0729 13.9025 10.088 13.8849 10.1028 13.8671C10.1216 13.8444 10.14 13.8215 10.1595 13.7991C10.1799 13.7755 10.2014 13.7525 10.2226 13.7293C10.2373 13.7131 10.2517 13.6966 10.2668 13.6807C10.3039 13.6415 10.3418 13.6031 10.3809 13.5652C10.4243 13.5231 10.4688 13.4824 10.5139 13.4427C10.5269 13.4313 10.5403 13.4204 10.5534 13.4091C10.5863 13.3809 10.6195 13.3529 10.6532 13.3261C10.6677 13.3145 10.6827 13.3033 10.6973 13.2919C10.731 13.2659 10.7649 13.2402 10.7993 13.2154C10.8133 13.2052 10.8275 13.1954 10.8417 13.1855C10.8783 13.1598 10.9154 13.1347 10.9528 13.1104C10.9649 13.1026 10.9769 13.0948 10.9891 13.0871C11.031 13.0606 11.0734 13.035 11.1161 13.0102C11.1241 13.0056 11.1321 13.0008 11.1401 12.9963C11.4558 12.8168 11.7928 12.6856 12.1397 12.6023C12.1453 12.601 12.1508 12.5995 12.1564 12.5981C12.2109 12.5853 12.2657 12.5738 12.3207 12.5634C12.3253 12.5625 12.3298 12.5615 12.3345 12.5606C12.3906 12.5501 12.4469 12.541 12.5034 12.533C12.5067 12.5325 12.51 12.532 12.5134 12.5315C12.5704 12.5236 12.6278 12.517 12.6852 12.5116C12.688 12.5113 12.6908 12.511 12.6936 12.5107C12.7508 12.5055 12.8081 12.5015 12.8654 12.4988C12.8689 12.4987 12.8723 12.4984 12.8759 12.4983C12.9317 12.4958 12.9875 12.4945 13.0434 12.4944C13.0486 12.4944 13.0537 12.4943 13.059 12.4943C13.2168 12.4945 13.3746 12.5042 13.5315 12.5234C13.5349 12.5238 13.5383 12.5244 13.5418 12.5248C13.6099 12.5333 13.6778 12.5441 13.7455 12.5563C13.7653 12.5598 13.7851 12.5637 13.805 12.5676C13.8573 12.5778 13.9093 12.5894 13.9612 12.6017C13.9842 12.6073 14.0073 12.6123 14.0302 12.6183C14.0918 12.6342 14.153 12.6517 14.214 12.6706C14.2458 12.6806 14.2774 12.6916 14.3091 12.7024C14.3491 12.716 14.389 12.7298 14.4287 12.7448C14.4632 12.7578 14.4974 12.7717 14.5316 12.7857C14.5634 12.7988 14.5949 12.8123 14.6264 12.8262C14.6615 12.8417 14.6966 12.8572 14.7311 12.8738C14.7641 12.8897 14.7968 12.9067 14.8294 12.9235C14.8569 12.9377 14.8847 12.9512 14.9118 12.9659L12.3375 15.4602L9.76284 17.9552ZM22.3512 32.7396L22.7835 28.4114H29.3263L29.7585 32.7396H22.3512ZM39.2114 25.9329C39.2114 25.9899 39.1635 26.0363 39.1048 26.0363H31.5519H20.5579H13.0049C12.946 26.0363 12.8982 25.99 12.8982 25.9329V23.7213H39.2115V25.9329H39.2114ZM39.2114 21.3461H12.8982V18.2758L18.4758 12.8714L17.4585 11.8858C16.8395 11.286 16.1213 10.8399 15.3548 10.5458C15.3482 10.5433 15.3415 10.541 15.3348 10.5385C15.2478 10.5054 15.1602 10.474 15.072 10.4448C15.0462 10.4363 15.0199 10.4288 14.994 10.4205C14.9255 10.3988 14.8569 10.3776 14.7876 10.3582C14.7435 10.3459 14.699 10.3349 14.6546 10.3235C14.6038 10.3105 14.553 10.2972 14.502 10.2855C14.4416 10.2715 14.3809 10.2593 14.3201 10.247C14.2851 10.24 14.2504 10.2326 14.2153 10.2262C14.1413 10.2126 14.0668 10.2009 13.9922 10.1898C13.9705 10.1866 13.949 10.1831 13.9274 10.1802C13.8425 10.1684 13.7572 10.1588 13.6718 10.1505C13.6605 10.1495 13.6493 10.1483 13.6381 10.1472C13.545 10.1387 13.4516 10.1323 13.3581 10.1278C13.3545 10.1277 13.3509 10.1274 13.3473 10.1273C13.1978 10.1204 13.0481 10.1167 12.8979 10.1203V7.36312C12.8979 7.30609 12.9458 7.25976 13.0046 7.25976H39.1045C39.1634 7.25976 39.2112 7.30617 39.2112 7.36312V21.3461H39.2114Z" fill="#092140"/>
</g>
<defs>
<clipPath id="clip0_57_3807">
<rect x="0.380371" y="-0.000244141" width="41.2823" height="40" rx="12" fill="white"/>
</clipPath>
</defs>
</svg>
