<svg width="42" height="40" viewBox="0 0 42 40" fill="none" xmlns="http://www.w3.org/2000/svg">
<g clip-path="url(#clip0_57_3844)">
<path d="M5.44153 24.9998C2.59649 24.9998 0.28125 22.7564 0.28125 19.9998C0.28125 17.2431 2.59649 14.9998 5.44153 14.9998C8.28656 14.9998 10.6018 17.2431 10.6018 19.9998C10.6018 22.7564 8.28656 24.9998 5.44153 24.9998ZM5.44153 16.6664C3.54427 16.6664 2.00134 18.1614 2.00134 19.9998C2.00134 21.8381 3.54427 23.3331 5.44153 23.3331C7.33879 23.3331 8.88171 21.8381 8.88171 19.9998C8.88171 18.1614 7.33879 16.6664 5.44153 16.6664Z" fill="#092140"/>
<path d="M20.9225 24.9998C18.0775 24.9998 15.7622 22.7564 15.7622 19.9998C15.7622 17.2431 18.0775 14.9998 20.9225 14.9998C23.7675 14.9998 26.0828 17.2431 26.0828 19.9998C26.0828 22.7564 23.7675 24.9998 20.9225 24.9998ZM20.9225 16.6664C19.0252 16.6664 17.4823 18.1614 17.4823 19.9998C17.4823 21.8381 19.0252 23.3331 20.9225 23.3331C22.8197 23.3331 24.3627 21.8381 24.3627 19.9998C24.3627 18.1614 22.8197 16.6664 20.9225 16.6664Z" fill="#092140"/>
<path d="M36.4032 24.9998C33.5582 24.9998 31.2429 22.7564 31.2429 19.9998C31.2429 17.2431 33.5582 14.9998 36.4032 14.9998C39.2482 14.9998 41.5635 17.2431 41.5635 19.9998C41.5635 22.7564 39.2482 24.9998 36.4032 24.9998ZM36.4032 16.6664C34.5059 16.6664 32.963 18.1614 32.963 19.9998C32.963 21.8381 34.5059 23.3331 36.4032 23.3331C38.3005 23.3331 39.8434 21.8381 39.8434 19.9998C39.8434 18.1614 38.3005 16.6664 36.4032 16.6664Z" fill="#092140"/>
</g>
<defs>
<clipPath id="clip0_57_3844">
<rect x="0.28125" y="-0.000244141" width="41.2822" height="40" rx="12" fill="white"/>
</clipPath>
</defs>
</svg>
