<svg width="42" height="40" viewBox="0 0 42 40" fill="none" xmlns="http://www.w3.org/2000/svg">
<g clip-path="url(#clip0_57_3854)">
<path d="M1.87819 28.5806C17.5668 24.2594 23.3012 32.9918 40.7158 28.5873C41.3621 28.4238 41.7492 27.7836 41.5806 27.1574C41.4119 26.5313 40.7511 26.1562 40.1049 26.3195C36.6859 27.1843 33.7225 27.5044 31.0389 27.5078L27.5326 22.032C29.6052 24.5274 33.4573 24.6713 35.7143 22.3458C36.7066 21.3234 37.2286 19.9878 37.1842 18.585C37.0354 13.8824 31.0889 11.7723 27.814 15.1464C26.2364 16.7719 25.9502 19.0831 26.8384 20.9479L22.0406 13.4554L29.1604 11.4647C31.3715 10.8465 32.4164 8.39415 31.293 6.4436C30.4773 5.02735 28.7842 4.3522 27.1762 4.80188L16.3974 7.81571C13.6027 8.5972 12.3512 11.745 13.8857 14.1416L17.1436 19.2293C14.7951 20.6418 7.34632 25.1174 7.26722 25.1706C5.3975 25.362 3.39515 25.7262 1.21694 26.3262C0.574487 26.5031 0.201656 27.1513 0.384282 27.7738C0.566827 28.3965 1.23597 28.7576 1.87819 28.5806ZM29.5759 16.7522C30.7144 15.5792 32.6149 15.526 33.822 16.6259C35.0313 17.7279 35.0897 19.5682 33.9523 20.7402C32.8152 21.9117 30.9157 21.9685 29.7062 20.8664C28.4969 19.7644 28.4385 17.9241 29.5759 16.7522ZM19.8365 18.9895L15.941 12.906C15.253 11.8316 15.8131 10.4185 17.0679 10.0677L27.8467 7.05384C28.3681 6.9079 28.9164 7.12688 29.1808 7.58579C29.5456 8.21915 29.2047 9.0129 28.4897 9.21282L19.8357 11.6326C19.0654 11.848 18.7214 12.7175 19.1433 13.3763L28.1162 27.389C22.4732 26.93 17.8881 25.2809 12.0823 25.0305L19.4465 20.6031C20.014 20.2619 20.1887 19.5395 19.8365 18.9895Z" fill="#092140"/>
<path d="M40.104 31.7882C23.4425 36.0025 17.596 27.2831 1.21597 31.7949C0.57351 31.9718 0.20068 32.62 0.383306 33.2425C0.565931 33.8651 1.23508 34.2264 1.87737 34.0493C17.566 29.7281 23.3004 38.4605 40.715 34.056C41.3613 33.8925 41.7484 33.2523 41.5797 32.6261C41.411 31.9999 40.7503 31.6249 40.104 31.7882Z" fill="#092140"/>
</g>
<defs>
<clipPath id="clip0_57_3854">
<rect x="0.336914" y="-0.000244141" width="41.2823" height="40" rx="12" fill="white"/>
</clipPath>
</defs>
</svg>
