<svg width="20" height="20" viewBox="0 0 20 20" fill="none" xmlns="http://www.w3.org/2000/svg">
<path d="M5.83317 7.49984C5.37484 7.49984 4.98248 7.33664 4.65609 7.01025C4.3297 6.68386 4.1665 6.2915 4.1665 5.83317C4.1665 5.37484 4.3297 4.98248 4.65609 4.65609C4.98248 4.3297 5.37484 4.1665 5.83317 4.1665C6.2915 4.1665 6.68386 4.3297 7.01025 4.65609C7.33664 4.98248 7.49984 5.37484 7.49984 5.83317C7.49984 6.2915 7.33664 6.68386 7.01025 7.01025C6.68386 7.33664 6.2915 7.49984 5.83317 7.49984ZM4.1665 18.3332C3.93039 18.3332 3.73248 18.2533 3.57275 18.0936C3.41303 17.9339 3.33317 17.7359 3.33317 17.4998C2.87484 17.4998 2.48248 17.3366 2.15609 17.0103C1.8297 16.6839 1.6665 16.2915 1.6665 15.8332V10.8332H4.1665V10.2082C4.1665 9.68039 4.34706 9.23595 4.70817 8.87484C5.06928 8.51373 5.51373 8.33317 6.0415 8.33317C6.31928 8.33317 6.57623 8.38873 6.81234 8.49984C7.04845 8.61095 7.26373 8.76373 7.45817 8.95817L8.62484 10.2498C8.73595 10.3609 8.84359 10.4651 8.94775 10.5623C9.05192 10.6596 9.1665 10.7498 9.2915 10.8332H14.9998V4.0415C14.9998 3.84706 14.9304 3.68039 14.7915 3.5415C14.6526 3.40261 14.4859 3.33317 14.2915 3.33317C14.2082 3.33317 14.1283 3.35053 14.0519 3.38525C13.9755 3.41998 13.9026 3.47206 13.8332 3.5415L12.7915 4.58317C12.8609 4.81928 12.8748 5.05192 12.8332 5.28109C12.7915 5.51025 12.7082 5.72206 12.5832 5.9165L10.2915 3.58317C10.4859 3.45817 10.6943 3.37831 10.9165 3.34359C11.1387 3.30886 11.3609 3.33317 11.5832 3.4165L12.6248 2.37484C12.8471 2.15261 13.1005 1.979 13.3853 1.854C13.67 1.729 13.9721 1.6665 14.2915 1.6665C14.9582 1.6665 15.5207 1.89567 15.979 2.354C16.4373 2.81234 16.6665 3.37484 16.6665 4.0415V10.8332H18.3332V15.8332C18.3332 16.2915 18.17 16.6839 17.8436 17.0103C17.5172 17.3366 17.1248 17.4998 16.6665 17.4998C16.6665 17.7359 16.5866 17.9339 16.4269 18.0936C16.2672 18.2533 16.0693 18.3332 15.8332 18.3332H4.1665ZM3.33317 15.8332H16.6665V12.4998H3.33317V15.8332Z" fill="#5F6368"/>
</svg>
