<svg width="29" height="28" viewBox="0 0 29 28" fill="none" xmlns="http://www.w3.org/2000/svg">
<path d="M1.66663 23.3334V20.0667C1.66663 19.4056 1.83676 18.7979 2.17704 18.2438C2.51732 17.6896 2.9694 17.2667 3.53329 16.975C4.73885 16.3722 5.96385 15.9202 7.20829 15.6188C8.45274 15.3174 9.71663 15.1667 11 15.1667C12.2833 15.1667 13.5472 15.3174 14.7916 15.6188C16.0361 15.9202 17.2611 16.3722 18.4666 16.975C19.0305 17.2667 19.4826 17.6896 19.8229 18.2438C20.1632 18.7979 20.3333 19.4056 20.3333 20.0667V23.3334H1.66663ZM22.6666 23.3334V19.8334C22.6666 18.9778 22.4284 18.1563 21.952 17.3688C21.4757 16.5813 20.8 15.9056 19.925 15.3417C20.9166 15.4584 21.85 15.6577 22.725 15.9396C23.6 16.2215 24.4166 16.5667 25.175 16.975C25.875 17.3639 26.4097 17.7965 26.7791 18.2729C27.1486 18.7493 27.3333 19.2695 27.3333 19.8334V23.3334H22.6666ZM11 14C9.71663 14 8.61801 13.5431 7.70413 12.6292C6.79024 11.7153 6.33329 10.6167 6.33329 9.33335C6.33329 8.05002 6.79024 6.95141 7.70413 6.03752C8.61801 5.12363 9.71663 4.66669 11 4.66669C12.2833 4.66669 13.3819 5.12363 14.2958 6.03752C15.2097 6.95141 15.6666 8.05002 15.6666 9.33335C15.6666 10.6167 15.2097 11.7153 14.2958 12.6292C13.3819 13.5431 12.2833 14 11 14ZM22.6666 9.33335C22.6666 10.6167 22.2097 11.7153 21.2958 12.6292C20.3819 13.5431 19.2833 14 18 14C17.7861 14 17.5138 13.9757 17.1833 13.9271C16.8527 13.8785 16.5805 13.825 16.3666 13.7667C16.8916 13.1445 17.2951 12.4542 17.577 11.6959C17.859 10.9375 18 10.15 18 9.33335C18 8.51669 17.859 7.72919 17.577 6.97085C17.2951 6.21252 16.8916 5.52224 16.3666 4.90002C16.6388 4.8028 16.9111 4.7396 17.1833 4.71044C17.4555 4.68127 17.7277 4.66669 18 4.66669C19.2833 4.66669 20.3819 5.12363 21.2958 6.03752C22.2097 6.95141 22.6666 8.05002 22.6666 9.33335ZM3.99996 21H18V20.0667C18 19.8528 17.9465 19.6584 17.8395 19.4834C17.7326 19.3084 17.5916 19.1722 17.4166 19.075C16.3666 18.55 15.3069 18.1563 14.2375 17.8938C13.168 17.6313 12.0888 17.5 11 17.5C9.91107 17.5 8.8319 17.6313 7.76246 17.8938C6.69301 18.1563 5.63329 18.55 4.58329 19.075C4.40829 19.1722 4.26732 19.3084 4.16038 19.4834C4.05343 19.6584 3.99996 19.8528 3.99996 20.0667V21ZM11 11.6667C11.6416 11.6667 12.1909 11.4382 12.6479 10.9813C13.1048 10.5243 13.3333 9.97502 13.3333 9.33335C13.3333 8.69169 13.1048 8.14238 12.6479 7.68544C12.1909 7.22849 11.6416 7.00002 11 7.00002C10.3583 7.00002 9.80899 7.22849 9.35204 7.68544C8.8951 8.14238 8.66663 8.69169 8.66663 9.33335C8.66663 9.97502 8.8951 10.5243 9.35204 10.9813C9.80899 11.4382 10.3583 11.6667 11 11.6667Z" fill="#5F6368"/>
</svg>
