<svg width="41" height="40" viewBox="0 0 41 40" fill="none" xmlns="http://www.w3.org/2000/svg">
<path d="M0 29.9998V27.3748C0 26.1803 0.626389 25.2081 1.87917 24.4581C3.13194 23.7081 4.78333 23.3331 6.83333 23.3331C7.20347 23.3331 7.55937 23.34 7.90104 23.3539C8.24271 23.3678 8.57014 23.4025 8.88333 23.4581C8.48472 24.0414 8.18576 24.6525 7.98646 25.2914C7.78715 25.9303 7.6875 26.597 7.6875 27.2914V29.9998H0ZM10.25 29.9998V27.2914C10.25 26.4025 10.4991 25.59 10.9974 24.8539C11.4957 24.1178 12.2003 23.472 13.1115 22.9164C14.0226 22.3609 15.1116 21.9442 16.3786 21.6664C17.6457 21.3886 19.0194 21.2498 20.5 21.2498C22.009 21.2498 23.397 21.3886 24.6641 21.6664C25.9311 21.9442 27.0201 22.3609 27.9312 22.9164C28.8424 23.472 29.5399 24.1178 30.024 24.8539C30.508 25.59 30.75 26.4025 30.75 27.2914V29.9998H10.25ZM33.3125 29.9998V27.2914C33.3125 26.5692 33.22 25.8886 33.0349 25.2498C32.8498 24.6109 32.5722 24.0136 32.2021 23.4581C32.5153 23.4025 32.8356 23.3678 33.163 23.3539C33.4905 23.34 33.825 23.3331 34.1667 23.3331C36.2167 23.3331 37.8681 23.7011 39.1208 24.4373C40.3736 25.1734 41 26.1525 41 27.3748V29.9998H33.3125ZM13.8802 26.6664H27.1625C26.8778 26.1109 26.0877 25.6248 24.7922 25.2081C23.4967 24.7914 22.066 24.5831 20.5 24.5831C18.934 24.5831 17.5033 24.7914 16.2078 25.2081C14.9123 25.6248 14.1365 26.1109 13.8802 26.6664ZM6.83333 21.6664C5.89375 21.6664 5.08941 21.34 4.42031 20.6873C3.75122 20.0345 3.41667 19.2498 3.41667 18.3331C3.41667 17.3886 3.75122 16.597 4.42031 15.9581C5.08941 15.3192 5.89375 14.9998 6.83333 14.9998C7.80139 14.9998 8.61285 15.3192 9.26771 15.9581C9.92257 16.597 10.25 17.3886 10.25 18.3331C10.25 19.2498 9.92257 20.0345 9.26771 20.6873C8.61285 21.34 7.80139 21.6664 6.83333 21.6664ZM34.1667 21.6664C33.2271 21.6664 32.4227 21.34 31.7536 20.6873C31.0845 20.0345 30.75 19.2498 30.75 18.3331C30.75 17.3886 31.0845 16.597 31.7536 15.9581C32.4227 15.3192 33.2271 14.9998 34.1667 14.9998C35.1347 14.9998 35.9462 15.3192 36.601 15.9581C37.2559 16.597 37.5833 17.3886 37.5833 18.3331C37.5833 19.2498 37.2559 20.0345 36.601 20.6873C35.9462 21.34 35.1347 21.6664 34.1667 21.6664ZM20.5 19.9998C19.0764 19.9998 17.8663 19.5136 16.8698 18.5414C15.8733 17.5692 15.375 16.3886 15.375 14.9998C15.375 13.5831 15.8733 12.3956 16.8698 11.4373C17.8663 10.4789 19.0764 9.99976 20.5 9.99976C21.9521 9.99976 23.1693 10.4789 24.1516 11.4373C25.1339 12.3956 25.625 13.5831 25.625 14.9998C25.625 16.3886 25.1339 17.5692 24.1516 18.5414C23.1693 19.5136 21.9521 19.9998 20.5 19.9998ZM20.5 16.6664C20.984 16.6664 21.3898 16.5067 21.7172 16.1873C22.0446 15.8678 22.2083 15.472 22.2083 14.9998C22.2083 14.5275 22.0446 14.1317 21.7172 13.8123C21.3898 13.4928 20.984 13.3331 20.5 13.3331C20.016 13.3331 19.6102 13.4928 19.2828 13.8123C18.9554 14.1317 18.7917 14.5275 18.7917 14.9998C18.7917 15.472 18.9554 15.8678 19.2828 16.1873C19.6102 16.5067 20.016 16.6664 20.5 16.6664Z" fill="#092140"/>
</svg>
