<svg width="20" height="20" viewBox="0 0 20 20" fill="none" xmlns="http://www.w3.org/2000/svg">
<path d="M5.83332 7.49971C5.37499 7.49971 4.98263 7.33652 4.65624 7.01013C4.32985 6.68374 4.16666 6.29138 4.16666 5.83305C4.16666 5.37471 4.32985 4.98235 4.65624 4.65597C4.98263 4.32958 5.37499 4.16638 5.83332 4.16638C6.29166 4.16638 6.68402 4.32958 7.01041 4.65597C7.33679 4.98235 7.49999 5.37471 7.49999 5.83305C7.49999 6.29138 7.33679 6.68374 7.01041 7.01013C6.68402 7.33652 6.29166 7.49971 5.83332 7.49971ZM4.16666 18.333C3.93055 18.333 3.73263 18.2532 3.57291 18.0935C3.41318 17.9337 3.33332 17.7358 3.33332 17.4997C2.87499 17.4997 2.48263 17.3365 2.15624 17.0101C1.82985 16.6837 1.66666 16.2914 1.66666 15.833V10.833H4.16666V10.208C4.16666 9.68027 4.34721 9.23583 4.70832 8.87471C5.06943 8.5136 5.51388 8.33305 6.04166 8.33305C6.31943 8.33305 6.57638 8.3886 6.81249 8.49971C7.0486 8.61083 7.26388 8.7636 7.45832 8.95805L8.62499 10.2497C8.7361 10.3608 8.84374 10.465 8.94791 10.5622C9.05207 10.6594 9.16666 10.7497 9.29166 10.833H15V4.04138C15 3.84694 14.9305 3.68027 14.7917 3.54138C14.6528 3.40249 14.4861 3.33305 14.2917 3.33305C14.2083 3.33305 14.1285 3.35041 14.0521 3.38513C13.9757 3.41985 13.9028 3.47194 13.8333 3.54138L12.7917 4.58305C12.8611 4.81916 12.875 5.0518 12.8333 5.28096C12.7917 5.51013 12.7083 5.72194 12.5833 5.91638L10.2917 3.58305C10.4861 3.45805 10.6944 3.37819 10.9167 3.34347C11.1389 3.30874 11.3611 3.33305 11.5833 3.41638L12.625 2.37472C12.8472 2.15249 13.1007 1.97888 13.3854 1.85388C13.6701 1.72888 13.9722 1.66638 14.2917 1.66638C14.9583 1.66638 15.5208 1.89555 15.9792 2.35388C16.4375 2.81222 16.6667 3.37472 16.6667 4.04138V10.833H18.3333V15.833C18.3333 16.2914 18.1701 16.6837 17.8437 17.0101C17.5174 17.3365 17.125 17.4997 16.6667 17.4997C16.6667 17.7358 16.5868 17.9337 16.4271 18.0935C16.2674 18.2532 16.0694 18.333 15.8333 18.333H4.16666ZM3.33332 15.833H16.6667V12.4997H3.33332V15.833Z" fill="#5F6368"/>
</svg>
