<svg width="24" height="24" viewBox="0 0 24 24" fill="none" xmlns="http://www.w3.org/2000/svg">
<g clip-path="url(#clip0_1_1683)">
<path d="M24 11.9998C24 18.6298 18.63 23.9998 12 23.9998C5.37 23.9998 0 18.6298 0 11.9998C0 5.36976 5.37 -0.000244141 12 -0.000244141C18.63 -0.000244141 24 5.36976 24 11.9998ZM9.804 18.3298C15.126 18.3298 18.036 13.9198 18.036 10.0978C18.036 9.97176 18.036 9.84576 18.03 9.72576C18.594 9.31776 19.086 8.80776 19.476 8.22576C18.96 8.45376 18.402 8.60976 17.814 8.68176C18.414 8.32176 18.87 7.75776 19.086 7.07976C18.528 7.40976 17.91 7.64976 17.25 7.78176C16.722 7.21776 15.972 6.86976 15.138 6.86976C13.542 6.86976 12.246 8.16576 12.246 9.76175C12.246 9.98976 12.27 10.2118 12.324 10.4218C9.918 10.3018 7.788 9.14976 6.36 7.39776C6.114 7.82376 5.97 8.32176 5.97 8.84976C5.97 9.85176 6.48 10.7398 7.26 11.2558C6.786 11.2438 6.342 11.1118 5.952 10.8958C5.952 10.9078 5.952 10.9198 5.952 10.9318C5.952 12.3358 6.948 13.4998 8.274 13.7698C8.034 13.8358 7.776 13.8718 7.512 13.8718C7.326 13.8718 7.146 13.8538 6.966 13.8178C7.332 14.9698 8.4 15.8038 9.666 15.8278C8.676 16.6018 7.428 17.0638 6.072 17.0638C5.838 17.0638 5.61 17.0518 5.382 17.0218C6.648 17.8498 8.172 18.3298 9.804 18.3298Z" fill="#353535"/>
</g>
<defs>
<clipPath id="clip0_1_1683">
<rect width="24" height="24" fill="white" transform="translate(0 -0.000244141)"/>
</clipPath>
</defs>
</svg>
