<svg width="42" height="40" viewBox="0 0 42 40" fill="none" xmlns="http://www.w3.org/2000/svg">
<g clip-path="url(#clip0_57_3815)">
<path d="M38.9151 12.1737H37.1202C36.8043 12.1737 36.5046 12.2363 36.2228 12.3337V9.56499C36.2228 8.12673 35.0148 6.9563 33.5305 6.9563H31.7356C30.2512 6.9563 29.0433 8.12673 29.0433 9.56499V15.6519H12.8894V9.56499C12.8894 8.12673 11.6814 6.9563 10.197 6.9563H8.40215C6.91779 6.9563 5.70983 8.12673 5.70983 9.56499V12.3337C5.42804 12.2363 5.12829 12.1737 4.81239 12.1737H3.01751C1.53315 12.1737 0.325195 13.3441 0.325195 14.7824V25.2172C0.325195 26.6554 1.53315 27.8259 3.01751 27.8259H4.81239C5.12829 27.8259 5.42804 27.7633 5.70983 27.6659V30.4346C5.70983 31.8728 6.91779 33.0433 8.40215 33.0433H10.197C11.6814 33.0433 12.8894 31.8728 12.8894 30.4346V24.3476H29.0433V30.4346C29.0433 31.8728 30.2512 33.0433 31.7356 33.0433H33.5305C35.0148 33.0433 36.2228 31.8728 36.2228 30.4346V27.6659C36.5046 27.7633 36.8043 27.8259 37.1202 27.8259H38.9151C40.3995 27.8259 41.6074 26.6554 41.6074 25.2172V14.7824C41.6074 13.3441 40.3995 12.1737 38.9151 12.1737ZM5.70983 25.2172C5.70983 25.6963 5.30688 26.0867 4.81239 26.0867H3.01751C2.52303 26.0867 2.12007 25.6963 2.12007 25.2172V14.7824C2.12007 14.3033 2.52303 13.9128 3.01751 13.9128H4.81239C5.30688 13.9128 5.70983 14.3033 5.70983 14.7824V25.2172ZM11.0945 30.4346C11.0945 30.9137 10.6915 31.3041 10.197 31.3041H8.40215C7.90766 31.3041 7.50471 30.9137 7.50471 30.4346V25.2172V14.7824V9.56499C7.50471 9.08586 7.90766 8.69543 8.40215 8.69543H10.197C10.6915 8.69543 11.0945 9.08586 11.0945 9.56499V30.4346ZM29.0433 22.6085H12.8894V17.3911H29.0433V22.6085ZM34.4279 14.7824V25.2172V30.4346C34.4279 30.9137 34.025 31.3041 33.5305 31.3041H31.7356C31.2411 31.3041 30.8381 30.9137 30.8381 30.4346V9.56499C30.8381 9.08586 31.2411 8.69543 31.7356 8.69543H33.5305C34.025 8.69543 34.4279 9.08586 34.4279 9.56499V14.7824ZM39.8125 25.2172C39.8125 25.6963 39.4096 26.0867 38.9151 26.0867H37.1202C36.6257 26.0867 36.2228 25.6963 36.2228 25.2172V14.7824C36.2228 14.3033 36.6257 13.9128 37.1202 13.9128H38.9151C39.4096 13.9128 39.8125 14.3033 39.8125 14.7824V25.2172Z" fill="#092140"/>
</g>
<defs>
<clipPath id="clip0_57_3815">
<rect x="0.325195" y="-0.000244141" width="41.2822" height="40" rx="12" fill="white"/>
</clipPath>
</defs>
</svg>
