<svg width="42" height="40" viewBox="0 0 42 40" fill="none" xmlns="http://www.w3.org/2000/svg">
<g clip-path="url(#clip0_1_1628)">
<path d="M5.44177 24.9998C2.59674 24.9998 0.281494 22.7564 0.281494 19.9998C0.281494 17.2431 2.59674 14.9998 5.44177 14.9998C8.28681 14.9998 10.6021 17.2431 10.6021 19.9998C10.6021 22.7564 8.28681 24.9998 5.44177 24.9998ZM5.44177 16.6664C3.54451 16.6664 2.00159 18.1614 2.00159 19.9998C2.00159 21.8381 3.54451 23.3331 5.44177 23.3331C7.33904 23.3331 8.88196 21.8381 8.88196 19.9998C8.88196 18.1614 7.33904 16.6664 5.44177 16.6664Z" fill="#092140"/>
<path d="M20.9226 24.9998C18.0776 24.9998 15.7623 22.7564 15.7623 19.9998C15.7623 17.2431 18.0776 14.9998 20.9226 14.9998C23.7676 14.9998 26.0829 17.2431 26.0829 19.9998C26.0829 22.7564 23.7676 24.9998 20.9226 24.9998ZM20.9226 16.6664C19.0253 16.6664 17.4824 18.1614 17.4824 19.9998C17.4824 21.8381 19.0253 23.3331 20.9226 23.3331C22.8199 23.3331 24.3628 21.8381 24.3628 19.9998C24.3628 18.1614 22.8199 16.6664 20.9226 16.6664Z" fill="#092140"/>
<path d="M36.4034 24.9998C33.5584 24.9998 31.2432 22.7564 31.2432 19.9998C31.2432 17.2431 33.5584 14.9998 36.4034 14.9998C39.2485 14.9998 41.5637 17.2431 41.5637 19.9998C41.5637 22.7564 39.2485 24.9998 36.4034 24.9998ZM36.4034 16.6664C34.5062 16.6664 32.9633 18.1614 32.9633 19.9998C32.9633 21.8381 34.5062 23.3331 36.4034 23.3331C38.3007 23.3331 39.8436 21.8381 39.8436 19.9998C39.8436 18.1614 38.3007 16.6664 36.4034 16.6664Z" fill="#092140"/>
</g>
<defs>
<clipPath id="clip0_1_1628">
<rect x="0.281494" y="-0.000244141" width="41.2822" height="40" rx="12" fill="white"/>
</clipPath>
</defs>
</svg>
