<svg width="20" height="20" viewBox="0 0 20 20" fill="none" xmlns="http://www.w3.org/2000/svg">
<path d="M1.66667 15.833V10.833C1.66667 10.458 1.74306 10.1178 1.89584 9.81222C2.04862 9.50666 2.25001 9.23583 2.50001 8.99972V6.66638C2.50001 5.97194 2.74306 5.38166 3.22917 4.89555C3.71528 4.40944 4.30556 4.16638 5 4.16638H8.33334C8.65278 4.16638 8.95139 4.22541 9.22917 4.34347C9.50695 4.46152 9.76389 4.62472 10 4.83305C10.2361 4.62472 10.4931 4.46152 10.7708 4.34347C11.0486 4.22541 11.3472 4.16638 11.6667 4.16638H15C15.6944 4.16638 16.2847 4.40944 16.7708 4.89555C17.2569 5.38166 17.5 5.97194 17.5 6.66638V8.99972C17.75 9.23583 17.9514 9.50666 18.1042 9.81222C18.2569 10.1178 18.3333 10.458 18.3333 10.833V15.833H16.6667V14.1664H3.33334V15.833H1.66667ZM10.8333 8.33305H15.8333V6.66638C15.8333 6.43027 15.7535 6.23235 15.5938 6.07263C15.434 5.91291 15.2361 5.83305 15 5.83305H11.6667C11.4306 5.83305 11.2326 5.91291 11.0729 6.07263C10.9132 6.23235 10.8333 6.43027 10.8333 6.66638V8.33305ZM4.16667 8.33305H9.16667V6.66638C9.16667 6.43027 9.08681 6.23235 8.92709 6.07263C8.76737 5.91291 8.56945 5.83305 8.33334 5.83305H5C4.76389 5.83305 4.56598 5.91291 4.40626 6.07263C4.24653 6.23235 4.16667 6.43027 4.16667 6.66638V8.33305ZM3.33334 12.4997H16.6667V10.833C16.6667 10.5969 16.5868 10.399 16.4271 10.2393C16.2674 10.0796 16.0694 9.99972 15.8333 9.99972H4.16667C3.93056 9.99972 3.73264 10.0796 3.57292 10.2393C3.4132 10.399 3.33334 10.5969 3.33334 10.833V12.4997Z" fill="#5F6368"/>
</svg>
