<svg width="24" height="24" viewBox="0 0 24 24" fill="none" xmlns="http://www.w3.org/2000/svg">
<g clip-path="url(#clip0_1_1681)">
<path d="M12 -0.000244141C5.4 -0.000244141 0 5.40939 0 12.072C0 18.0961 4.392 23.0961 10.128 23.9998V15.566H7.08V12.072H10.128V9.40939C10.128 6.3853 11.916 4.72265 14.664 4.72265C15.972 4.72265 17.34 4.95156 17.34 4.95156V7.92747H15.828C14.34 7.92747 13.872 8.85518 13.872 9.80699V12.072H17.208L16.668 15.566H13.872V23.9998C19.716 23.072 24.012 18.0118 24 12.072C24 5.40939 18.6 -0.000244141 12 -0.000244141Z" fill="#353535"/>
</g>
<defs>
<clipPath id="clip0_1_1681">
<rect width="24" height="24" fill="white" transform="translate(0 -0.000244141)"/>
</clipPath>
</defs>
</svg>
