<svg width="29" height="28" viewBox="0 0 29 28" fill="none" xmlns="http://www.w3.org/2000/svg">
<path d="M2.83331 23.7417V21.4667C3.3972 21.4667 3.87845 21.3792 4.27706 21.2042C4.67567 21.0292 5.07915 20.8396 5.48748 20.6354C5.89581 20.4313 6.3479 20.2466 6.84373 20.0813C7.33956 19.916 7.9472 19.8334 8.66665 19.8334C9.40554 19.8334 10.0132 19.916 10.4896 20.0813C10.966 20.2466 11.4083 20.4313 11.8166 20.6354C12.225 20.8396 12.6333 21.0292 13.0416 21.2042C13.45 21.3792 13.9361 21.4667 14.5 21.4667C15.0639 21.4667 15.55 21.3792 15.9583 21.2042C16.3666 21.0292 16.775 20.8396 17.1833 20.6354C17.5916 20.4313 18.0389 20.2466 18.525 20.0813C19.0111 19.916 19.6139 19.8334 20.3333 19.8334C21.0722 19.8334 21.6847 19.916 22.1708 20.0813C22.6569 20.2466 23.1041 20.4313 23.5125 20.6354C23.9208 20.8396 24.3291 21.0292 24.7375 21.2042C25.1458 21.3792 25.6222 21.4667 26.1666 21.4667V23.7417C25.4278 23.7417 24.8104 23.6542 24.3146 23.4792C23.8187 23.3042 23.3666 23.1146 22.9583 22.9104C22.55 22.7063 22.1514 22.5216 21.7625 22.3563C21.3736 22.191 20.8972 22.1084 20.3333 22.1084C19.7889 22.1084 19.3173 22.191 18.9187 22.3563C18.5201 22.5216 18.1215 22.7063 17.7229 22.9104C17.3243 23.1146 16.8771 23.3042 16.3812 23.4792C15.8854 23.6542 15.2583 23.7417 14.5 23.7417C13.7416 23.7417 13.1146 23.6542 12.6187 23.4792C12.1229 23.3042 11.6757 23.1146 11.2771 22.9104C10.8785 22.7063 10.4847 22.5216 10.0958 22.3563C9.70692 22.191 9.23054 22.1084 8.66665 22.1084C8.1222 22.1084 7.65067 22.191 7.25206 22.3563C6.85345 22.5216 6.44998 22.7063 6.04165 22.9104C5.63331 23.1146 5.18123 23.3042 4.6854 23.4792C4.18956 23.6542 3.5722 23.7417 2.83331 23.7417ZM2.83331 18.55V16.275C3.3972 16.275 3.87845 16.1875 4.27706 16.0125C4.67567 15.8375 5.07915 15.6479 5.48748 15.4438C5.89581 15.2396 6.3479 15.0549 6.84373 14.8896C7.33956 14.7243 7.9472 14.6417 8.66665 14.6417C9.40554 14.6417 10.0132 14.7243 10.4896 14.8896C10.966 15.0549 11.4083 15.2396 11.8166 15.4438C12.225 15.6479 12.6333 15.8375 13.0416 16.0125C13.45 16.1875 13.9361 16.275 14.5 16.275C15.0639 16.275 15.55 16.1875 15.9583 16.0125C16.3666 15.8375 16.775 15.6479 17.1833 15.4438C17.5916 15.2396 18.0389 15.0549 18.525 14.8896C19.0111 14.7243 19.6139 14.6417 20.3333 14.6417C21.0722 14.6417 21.6847 14.7243 22.1708 14.8896C22.6569 15.0549 23.1041 15.2396 23.5125 15.4438C23.9208 15.6479 24.3291 15.8375 24.7375 16.0125C25.1458 16.1875 25.6222 16.275 26.1666 16.275V18.55C25.4278 18.55 24.8104 18.4625 24.3146 18.2875C23.8187 18.1125 23.3666 17.9229 22.9583 17.7188C22.55 17.5146 22.1514 17.3299 21.7625 17.1646C21.3736 16.9993 20.8972 16.9167 20.3333 16.9167C19.7694 16.9167 19.2882 16.9993 18.8896 17.1646C18.491 17.3299 18.0923 17.5146 17.6937 17.7188C17.2951 17.9229 16.8528 18.1125 16.3666 18.2875C15.8805 18.4625 15.2583 18.55 14.5 18.55C13.7416 18.55 13.1146 18.4625 12.6187 18.2875C12.1229 18.1125 11.6757 17.9229 11.2771 17.7188C10.8785 17.5146 10.4847 17.3299 10.0958 17.1646C9.70692 16.9993 9.23054 16.9167 8.66665 16.9167C8.1222 16.9167 7.65067 16.9993 7.25206 17.1646C6.85345 17.3299 6.44998 17.5146 6.04165 17.7188C5.63331 17.9229 5.18123 18.1125 4.6854 18.2875C4.18956 18.4625 3.5722 18.55 2.83331 18.55ZM2.83331 13.3584V11.0834C3.3972 11.0834 3.87845 10.9959 4.27706 10.8209C4.67567 10.6459 5.07915 10.4563 5.48748 10.2521C5.89581 10.0479 6.3479 9.86322 6.84373 9.69795C7.33956 9.53267 7.9472 9.45003 8.66665 9.45003C9.40554 9.45003 10.0132 9.53267 10.4896 9.69795C10.966 9.86322 11.4083 10.0479 11.8166 10.2521C12.225 10.4563 12.6333 10.6459 13.0416 10.8209C13.45 10.9959 13.9361 11.0834 14.5 11.0834C15.0639 11.0834 15.55 10.9959 15.9583 10.8209C16.3666 10.6459 16.775 10.4563 17.1833 10.2521C17.5916 10.0479 18.0389 9.86322 18.525 9.69795C19.0111 9.53267 19.6139 9.45003 20.3333 9.45003C21.0722 9.45003 21.6847 9.53267 22.1708 9.69795C22.6569 9.86322 23.1041 10.0479 23.5125 10.2521C23.9208 10.4563 24.3291 10.6459 24.7375 10.8209C25.1458 10.9959 25.6222 11.0834 26.1666 11.0834V13.3584C25.4278 13.3584 24.8104 13.2709 24.3146 13.0959C23.8187 12.9209 23.3666 12.7313 22.9583 12.5271C22.55 12.3229 22.1514 12.1382 21.7625 11.9729C21.3736 11.8077 20.8972 11.725 20.3333 11.725C19.7889 11.725 19.3173 11.8077 18.9187 11.9729C18.5201 12.1382 18.1215 12.3229 17.7229 12.5271C17.3243 12.7313 16.8771 12.9209 16.3812 13.0959C15.8854 13.2709 15.2583 13.3584 14.5 13.3584C13.7416 13.3584 13.1146 13.2709 12.6187 13.0959C12.1229 12.9209 11.6757 12.7313 11.2771 12.5271C10.8785 12.3229 10.4847 12.1382 10.0958 11.9729C9.70692 11.8077 9.23054 11.725 8.66665 11.725C8.1222 11.725 7.65067 11.8077 7.25206 11.9729C6.85345 12.1382 6.44998 12.3229 6.04165 12.5271C5.63331 12.7313 5.18123 12.9209 4.6854 13.0959C4.18956 13.2709 3.5722 13.3584 2.83331 13.3584ZM2.83331 8.1667V5.8917C3.3972 5.8917 3.87845 5.8042 4.27706 5.6292C4.67567 5.4542 5.07915 5.26461 5.48748 5.06045C5.89581 4.85628 6.3479 4.67156 6.84373 4.50628C7.33956 4.341 7.9472 4.25836 8.66665 4.25836C9.40554 4.25836 10.0132 4.341 10.4896 4.50628C10.966 4.67156 11.4083 4.85628 11.8166 5.06045C12.225 5.26461 12.6333 5.4542 13.0416 5.6292C13.45 5.8042 13.9361 5.8917 14.5 5.8917C15.0639 5.8917 15.55 5.8042 15.9583 5.6292C16.3666 5.4542 16.775 5.26461 17.1833 5.06045C17.5916 4.85628 18.0389 4.67156 18.525 4.50628C19.0111 4.341 19.6139 4.25836 20.3333 4.25836C21.0722 4.25836 21.6847 4.341 22.1708 4.50628C22.6569 4.67156 23.1041 4.85628 23.5125 5.06045C23.9208 5.26461 24.3291 5.4542 24.7375 5.6292C25.1458 5.8042 25.6222 5.8917 26.1666 5.8917V8.1667C25.4278 8.1667 24.8104 8.0792 24.3146 7.9042C23.8187 7.7292 23.3666 7.53961 22.9583 7.33545C22.55 7.13128 22.1514 6.94656 21.7625 6.78128C21.3736 6.616 20.8972 6.53336 20.3333 6.53336C19.7889 6.53336 19.3173 6.616 18.9187 6.78128C18.5201 6.94656 18.1215 7.13128 17.7229 7.33545C17.3243 7.53961 16.8771 7.7292 16.3812 7.9042C15.8854 8.0792 15.2583 8.1667 14.5 8.1667C13.7416 8.1667 13.1146 8.0792 12.6187 7.9042C12.1229 7.7292 11.6757 7.53961 11.2771 7.33545C10.8785 7.13128 10.4847 6.94656 10.0958 6.78128C9.70692 6.616 9.23054 6.53336 8.66665 6.53336C8.1222 6.53336 7.65067 6.616 7.25206 6.78128C6.85345 6.94656 6.44998 7.13128 6.04165 7.33545C5.63331 7.53961 5.18123 7.7292 4.6854 7.9042C4.18956 8.0792 3.5722 8.1667 2.83331 8.1667Z" fill="#5F6368"/>
</svg>
