<svg width="24" height="24" viewBox="0 0 24 24" fill="none" xmlns="http://www.w3.org/2000/svg">
<g clip-path="url(#clip0_1_1679)">
<path d="M6.96 -0.000244141H17.04C20.88 -0.000244141 24 3.11976 24 6.95976V17.0398C24 20.8798 20.88 23.9998 17.04 23.9998H6.96C3.12 23.9998 0 20.8798 0 17.0398V6.95976C0 3.11976 3.12 -0.000244141 6.96 -0.000244141ZM6.72 2.39976C4.332 2.39976 2.4 4.33176 2.4 6.71976V17.2798C2.4 19.6678 4.332 21.5998 6.72 21.5998H17.28C19.668 21.5998 21.6 19.6678 21.6 17.2798V6.71976C21.6 4.33176 19.668 2.39976 17.28 2.39976H6.72ZM18.3 4.19976C19.128 4.19976 19.8 4.87176 19.8 5.69976C19.8 6.52776 19.128 7.19976 18.3 7.19976C17.472 7.19976 16.8 6.52776 16.8 5.69976C16.8 4.87176 17.472 4.19976 18.3 4.19976ZM12 5.99976C15.312 5.99976 18 8.68776 18 11.9998C18 15.3118 15.312 17.9998 12 17.9998C8.688 17.9998 6 15.3118 6 11.9998C6 8.68776 8.688 5.99976 12 5.99976ZM12 8.39976C10.008 8.39976 8.4 10.0078 8.4 11.9998C8.4 13.9918 10.008 15.5998 12 15.5998C13.992 15.5998 15.6 13.9918 15.6 11.9998C15.6 10.0078 13.992 8.39976 12 8.39976Z" fill="#353535"/>
</g>
<defs>
<clipPath id="clip0_1_1679">
<rect width="24" height="24" fill="white" transform="translate(0 -0.000244141)"/>
</clipPath>
</defs>
</svg>
