<svg width="24" height="24" viewBox="0 0 24 24" fill="none" xmlns="http://www.w3.org/2000/svg">
<path d="M12.0442 0.999756C6.00804 0.999756 1.08844 5.89476 1.08844 11.9008C1.08844 13.8258 1.59698 15.6958 2.54774 17.3458L1 22.9998L6.80402 21.4818C8.40703 22.3508 10.209 22.8128 12.0442 22.8128C18.0804 22.8128 23 17.9178 23 11.9118C23 8.99676 21.8613 6.25776 19.794 4.20076C17.7266 2.13276 14.9739 0.999756 12.0442 0.999756ZM12.0553 2.83676C14.4874 2.83676 16.7648 3.78276 18.4894 5.49876C20.203 7.21476 21.1538 9.49176 21.1538 11.9118C21.1538 16.9058 17.0633 20.9648 12.0442 20.9648C10.408 20.9648 8.80502 20.5358 7.41206 19.6998L7.0804 19.5128L3.63116 20.4148L4.54874 17.0708L4.32764 16.7188C3.42111 15.2998 2.93467 13.6168 2.93467 11.9008C2.94573 6.90676 7.02512 2.83676 12.0553 2.83676ZM8.16382 6.86276C7.98693 6.86276 7.68844 6.92876 7.43417 7.20376C7.19095 7.47876 6.47236 8.14976 6.47236 9.48076C6.47236 10.8228 7.45628 12.1098 7.57789 12.2968C7.73266 12.4838 9.52362 15.2338 12.2764 16.3998C12.9286 16.6968 13.4372 16.8618 13.8352 16.9828C14.4874 17.1918 15.0844 17.1588 15.5598 17.0928C16.0905 17.0158 17.1739 16.4328 17.406 15.7948C17.6382 15.1568 17.6382 14.6178 17.5719 14.4968C17.4945 14.3868 17.3176 14.3208 17.0412 14.1998C16.7648 14.0458 15.4161 13.3858 15.1729 13.2978C14.9186 13.2098 14.7638 13.1658 14.5538 13.4298C14.3769 13.7048 13.8462 14.3208 13.6915 14.4968C13.5256 14.6838 13.3709 14.7058 13.1055 14.5738C12.8181 14.4308 11.9337 14.1448 10.8945 13.2208C10.0764 12.4948 9.53467 11.6038 9.36884 11.3288C9.23618 11.0648 9.35779 10.8998 9.49045 10.7788C9.61206 10.6578 9.78894 10.4598 9.8995 10.2948C10.0432 10.1408 10.0874 10.0198 10.1759 9.84376C10.2643 9.65676 10.2201 9.50276 10.1538 9.37076C10.0874 9.24976 9.53467 7.88576 9.30251 7.34676C9.08141 6.81876 8.8603 6.88476 8.68342 6.87376C8.52864 6.87376 8.35176 6.86276 8.16382 6.86276Z" fill="#353535"/>
</svg>
