<svg width="263" height="40" viewBox="0 0 263 40" fill="none" xmlns="http://www.w3.org/2000/svg">
<path d="M5.6064 6.13452V34.1665H0V6.13452H5.6064Z" fill="#092140"/>
<path d="M22.6977 13.3537C26.9601 13.3537 29.4177 15.0433 29.9169 18.7681C30.0321 19.8049 30.0705 20.7649 30.0705 22.4161V34.1665H24.5793V22.3393C24.5793 19.6513 23.8497 17.9233 20.8161 17.9233C18.3201 17.8465 16.5537 19.5745 16.5537 23.4145V34.1665H11.0625V13.8913H16.0929L16.3233 17.1937C16.9761 14.1985 19.3569 13.3537 22.6977 13.3537Z" fill="#092140"/>
<path d="M46.7871 13.3537C49.7823 13.3537 51.5871 14.6977 52.4319 16.6945C53.1999 13.8529 56.2719 13.3537 58.8447 13.3537C63.1071 13.3537 65.2575 15.5809 65.6799 18.6529C65.8335 19.6897 65.8719 20.6881 65.8719 22.0321V34.1665H60.3807V22.8385C60.3807 19.9201 59.9199 17.8849 57.0015 17.8849C54.3519 17.8849 53.1231 19.6513 53.1231 23.2609V34.1665H47.6319V22.8001C47.6319 19.8817 47.1711 17.8849 44.2527 17.8849C41.6031 17.8849 40.4127 19.6129 40.4127 23.2225V34.1665H34.9215V13.8913H39.9519L40.1439 16.6945C40.8735 13.8529 43.7919 13.3537 46.7871 13.3537Z" fill="#092140"/>
<path d="M75.3171 23.9905C75.3171 28.6369 77.0835 30.2497 80.0787 30.2497C83.0355 30.2497 84.7635 28.6369 84.7635 23.9905C84.7635 19.4209 83.0355 17.7697 80.0787 17.7697C77.0835 17.7697 75.3171 19.4209 75.3171 23.9905ZM69.5955 23.9905C69.5955 17.0785 73.2435 13.3537 80.0787 13.3537C86.9139 13.3537 90.5235 17.0785 90.5235 23.9905C90.5235 30.9409 86.8755 34.7041 80.0787 34.7041C73.2435 34.7041 69.5955 30.9409 69.5955 23.9905Z" fill="#092140"/>
<path d="M114.422 6.13452V11.0497H100.367V17.6929H113.615V22.4161H100.367V29.2513H114.729V34.1665H94.761V6.13452H114.422Z" fill="#092140"/>
<path d="M126.553 13.3537C132.314 13.3537 134.771 15.5809 135.04 19.8433H129.741C129.472 17.9617 128.205 17.5009 126.438 17.5009C124.825 17.5009 123.597 18.1153 123.597 19.2673C123.597 20.4961 124.595 21.1873 127.744 21.6865C133.081 22.4929 135.654 24.3361 135.654 28.3297C135.654 32.6305 131.738 34.7041 126.861 34.7041C121.101 34.7041 118.144 32.6689 117.606 28.0609H122.982C123.328 29.9041 124.48 30.5185 127.014 30.5185C129.011 30.5185 130.201 29.8657 130.201 28.7905C130.201 27.4465 128.819 26.6785 125.824 26.2177C120.448 25.3345 118.144 23.7217 118.144 19.6129C118.144 15.8881 121.446 13.3537 126.553 13.3537Z" fill="#092140"/>
<path d="M146.462 27.1393C146.462 30.1345 147.115 30.4033 150.763 30.2113V34.3585C149.496 34.5121 148.421 34.6273 146.616 34.6273C142.546 34.6273 141.24 32.9761 141.01 30.3649C140.933 29.2513 140.933 28.4449 140.933 27.2929V18.2689H138.014V13.9297H140.933V8.01612H146.462V13.9297H150.994V18.2689H146.462V27.1393Z" fill="#092140"/>
<path d="M163.155 13.3537C169.145 13.3537 171.372 15.9265 171.641 19.4977C171.718 20.5345 171.756 21.4945 171.756 22.6465V34.1665H166.803L166.495 31.4785C165.574 34.2049 163.155 34.7041 160.16 34.7041C156.435 34.7041 153.516 32.5921 153.516 28.6369C153.516 23.5681 157.395 21.7249 165.228 21.7249H166.342V20.9953C166.342 18.9985 165.689 17.7313 162.924 17.7313C160.505 17.7313 159.43 18.5761 159.199 20.4577H154.169C154.323 16.0801 157.011 13.3537 163.155 13.3537ZM158.854 27.9841C158.854 29.4817 160.044 30.3265 161.926 30.3265C164.076 30.3265 166.342 29.0977 166.342 27.1009V25.4881C161.503 25.2577 158.854 25.7569 158.854 27.9841Z" fill="#092140"/>
<path d="M183.605 27.1393C183.605 30.1345 184.258 30.4033 187.906 30.2113V34.3585C186.639 34.5121 185.564 34.6273 183.759 34.6273C179.689 34.6273 178.383 32.9761 178.153 30.3649C178.076 29.2513 178.076 28.4449 178.076 27.2929V18.2689H175.157V13.9297H178.076V8.01612H183.605V13.9297H188.137V18.2689H183.605V27.1393Z" fill="#092140"/>
<path d="M200.761 13.3537C207.404 13.3537 210.208 17.6929 210.208 23.6833C210.208 24.2593 210.169 25.0273 210.131 25.6801H196.268C196.614 29.0977 198.15 30.2881 200.684 30.2881C202.796 30.2881 203.987 29.4817 204.524 27.9841H209.862C209.132 32.2465 205.83 34.7041 200.569 34.7041C194.041 34.7041 190.662 31.1329 190.662 24.1441C190.662 17.5393 193.849 13.3537 200.761 13.3537ZM196.307 21.8401H204.678C204.371 18.8833 202.835 17.7313 200.531 17.7313C198.112 17.7313 196.652 18.8065 196.307 21.8401Z" fill="#092140"/>
<path fill-rule="evenodd" clip-rule="evenodd" d="M242.862 39.9997C253.889 39.9773 262.821 31.0316 262.821 19.9998C262.821 8.9541 253.866 -0.000244141 242.821 -0.000244141C231.789 -0.000244141 222.843 8.93156 222.821 19.9582L222.821 19.9998V39.9998L242.862 39.9997Z" fill="#F95738"/>
<path fill-rule="evenodd" clip-rule="evenodd" d="M239.328 27.6356V28.1494C239.328 28.7006 238.881 29.1474 238.33 29.1474H233.673C233.122 29.1474 232.675 28.7006 232.675 28.1494V14.6965C232.675 14.3191 232.888 13.974 233.225 13.8047L242.206 9.29506C242.488 9.15347 242.821 9.15358 243.102 9.29536L252.084 13.813C252.421 13.9824 252.634 14.3273 252.634 14.7045V28.1494C252.634 28.7006 252.187 29.1474 251.636 29.1474H242.405C241.854 29.1474 241.407 28.7006 241.407 28.1494V23.4528C241.407 22.9017 241.854 22.4549 242.405 22.4549H242.904C243.455 22.4549 243.902 22.9017 243.902 23.4528V25.6398C243.902 26.1909 244.349 26.6377 244.9 26.6377H249.141C249.692 26.6377 250.139 26.1909 250.139 25.6398V16.4702C250.139 16.0926 249.926 15.7473 249.588 15.5781L243.101 12.3264C242.82 12.1855 242.489 12.1854 242.207 12.3261L235.721 15.5703C235.383 15.7393 235.17 16.0848 235.17 16.4628V25.6398C235.17 26.1909 235.617 26.6377 236.168 26.6377H238.33C238.881 26.6377 239.328 27.0845 239.328 27.6356ZM242.675 20.783C243.594 20.783 244.338 20.0383 244.338 19.1197C244.338 18.2011 243.594 17.4564 242.675 17.4564C241.757 17.4564 241.012 18.2011 241.012 19.1197C241.012 20.0383 241.757 20.783 242.675 20.783Z" fill="white"/>
</svg>
